<svg
  id="_Слой_1"
  data-name="Слой_1"
  xmlns="http://www.w3.org/2000/svg"
  baseProfile="tiny"
  version="1.2"
  viewBox="0 0 1000 1000"
>
  <g>
    <path
      d="M255.55,601.68l-32.04,100.11h-36.18l-16.16-53.49-17.02,53.49h-36.18l-32.04-100.11h34.75l17.45,56.92,18.45-56.92h31.04l17.45,57.64,18.45-57.64h32.04Z"
      fill="#333"
    />
    <path
      d="M327.64,684.34h-38.04l-6.72,17.45h-34.32l43.76-100.11h33.18l43.76,100.11h-34.9l-6.72-17.45ZM318.35,660.03l-9.73-25.17-9.73,25.17h19.45Z"
      fill="#333"
    />
    <path
      d="M417.61,676.62h-9.15v25.17h-33.75v-100.11h48.2c27.89,0,45.62,14.59,45.62,37.76,0,14.44-6.86,25.31-18.88,31.46l21.02,30.89h-36.04l-17.02-25.17ZM420.75,627.71h-12.3v23.46h12.3c9.3,0,13.73-4.43,13.73-11.73s-4.43-11.73-13.73-11.73Z"
      fill="#333"
    />
    <path
      d="M501.57,627.85h-29.32v-26.17h92.39v26.17h-29.32v73.94h-33.75v-73.94Z"
      fill="#333"
    />
    <path
      d="M616.27,676.62h-9.15v25.17h-33.75v-100.11h48.2c27.89,0,45.62,14.59,45.62,37.76,0,14.44-6.86,25.31-18.88,31.46l21.02,30.89h-36.04l-17.02-25.17ZM619.42,627.71h-12.3v23.46h12.3c9.3,0,13.73-4.43,13.73-11.73s-4.43-11.73-13.73-11.73Z"
      fill="#333"
    />
    <path
      d="M748.14,684.34h-38.04l-6.72,17.45h-34.32l43.76-100.11h33.18l43.76,100.11h-34.9l-6.72-17.45ZM738.85,660.03l-9.73-25.17-9.73,25.17h19.45Z"
      fill="#333"
    />
    <path
      d="M828.95,627.14v17.16h41.76v25.46h-41.76v32.04h-33.75v-100.11h81.38v25.46h-47.63Z"
      fill="#333"
    />
  </g>
  <g>
    <polygon
      points="571.22 466.07 512.41 466.07 453.62 466.07 479.93 420.48 447.45 364.23 388.64 466.07 388.13 466.97 386.87 469.18 385.51 471.51 384.08 473.99 382.57 476.6 380.96 479.39 379.26 482.33 377.47 485.42 375.58 488.72 373.57 492.2 371.46 495.85 369.22 499.71 366.87 503.79 364.4 508.07 361.8 512.6 359.06 517.35 356.17 522.34 361.05 522.34 365.94 522.34 370.82 522.34 375.71 522.34 380.59 522.34 385.47 522.34 390.36 522.34 395.24 522.34 400.12 522.34 404.99 522.34 409.88 522.34 414.77 522.34 419.66 522.34 421.15 522.34 421.16 522.34 668.66 522.34 636.18 466.07 571.22 466.07"
      fill="#0fbc9f"
      fillRule="evenodd"
    />
    <path
      d="M290.01,522.34l156.25-270.63,91.28,158.09h64.97l-156.24-270.62c-73.74,127.72-147.49,255.45-221.23,383.17h64.98Z"
      fill="#26c0a9"
      fillRule="evenodd"
    />
    <polygon
      points="578.2 248.4 632.5 342.44 703.47 465.38 736.36 522.34 802.1 522.34 578.2 134.49 545.31 191.44 578.2 248.4"
      fill="#26c0a9"
      fillRule="evenodd"
    />
  </g>
  <g>
    <path
      d="M228.76,793.08c0,6.26-4.63,9.84-13.85,9.84h-16.95v-36.85h15.9c8.21,0,12.95,3.47,12.95,9.48,0,4.21-2.26,7-5.63,8.37,4.74,1.05,7.58,4.16,7.58,9.16ZM201.86,769.28v13.37h11.74c5.9,0,9.32-2.26,9.32-6.69s-3.42-6.69-9.32-6.69h-11.74ZM224.87,792.76c0-4.79-3.53-6.9-10-6.9h-13v13.84h13c6.48,0,10-2.11,10-6.95Z"
      fill="#4d4d4d"
    />
    <path
      d="M237.35,787.18v-21.11h3.9v20.95c0,8.74,4.11,12.74,11.27,12.74s11.32-4,11.32-12.74v-20.95h3.79v21.11c0,10.58-5.69,16.06-15.11,16.06s-15.16-5.48-15.16-16.06Z"
      fill="#4d4d4d"
    />
    <path
      d="M275.84,798.45l1.53-3c2.63,2.58,7.32,4.47,12.16,4.47,6.9,0,9.9-2.9,9.9-6.53,0-10.11-22.69-3.9-22.69-17.53,0-5.42,4.21-10.11,13.58-10.11,4.16,0,8.48,1.21,11.42,3.26l-1.32,3.11c-3.16-2.05-6.84-3.05-10.11-3.05-6.74,0-9.74,3-9.74,6.69,0,10.11,22.69,4,22.69,17.42,0,5.42-4.32,10.05-13.74,10.05-5.53,0-10.95-1.95-13.69-4.79Z"
      fill="#4d4d4d"
    />
    <path d="M311.74,766.07h3.9v36.85h-3.9v-36.85Z" fill="#4d4d4d" />
    <path
      d="M358.44,766.07v36.85h-3.21l-23.69-29.9v29.9h-3.9v-36.85h3.21l23.74,29.9v-29.9h3.84Z"
      fill="#4d4d4d"
    />
    <path
      d="M396.51,799.55v3.37h-26.06v-36.85h25.27v3.37h-21.37v13.11h19.06v3.32h-19.06v13.69h22.16Z"
      fill="#4d4d4d"
    />
    <path
      d="M402.14,798.45l1.53-3c2.63,2.58,7.32,4.47,12.16,4.47,6.9,0,9.9-2.9,9.9-6.53,0-10.11-22.69-3.9-22.69-17.53,0-5.42,4.21-10.11,13.58-10.11,4.16,0,8.48,1.21,11.42,3.26l-1.32,3.11c-3.16-2.05-6.84-3.05-10.11-3.05-6.74,0-9.74,3-9.74,6.69,0,10.11,22.69,4,22.69,17.42,0,5.42-4.32,10.05-13.74,10.05-5.53,0-10.95-1.95-13.69-4.79Z"
      fill="#4d4d4d"
    />
    <path
      d="M434.52,798.45l1.53-3c2.63,2.58,7.32,4.47,12.16,4.47,6.9,0,9.9-2.9,9.9-6.53,0-10.11-22.69-3.9-22.69-17.53,0-5.42,4.21-10.11,13.58-10.11,4.16,0,8.48,1.21,11.42,3.26l-1.32,3.11c-3.16-2.05-6.84-3.05-10.11-3.05-6.74,0-9.74,3-9.74,6.69,0,10.11,22.69,4,22.69,17.42,0,5.42-4.32,10.05-13.74,10.05-5.53,0-10.95-1.95-13.69-4.79Z"
      fill="#4d4d4d"
    />
    <path
      d="M480.7,798.45l1.53-3c2.63,2.58,7.32,4.47,12.16,4.47,6.9,0,9.9-2.9,9.9-6.53,0-10.11-22.69-3.9-22.69-17.53,0-5.42,4.21-10.11,13.58-10.11,4.16,0,8.48,1.21,11.42,3.26l-1.32,3.11c-3.16-2.05-6.84-3.05-10.11-3.05-6.74,0-9.74,3-9.74,6.69,0,10.11,22.69,4,22.69,17.42,0,5.42-4.32,10.05-13.74,10.05-5.53,0-10.95-1.95-13.69-4.79Z"
      fill="#4d4d4d"
    />
    <path
      d="M513.34,784.5c0-10.74,8.21-18.74,19.37-18.74s19.32,7.95,19.32,18.74-8.26,18.74-19.32,18.74-19.37-8-19.37-18.74ZM548.14,784.5c0-8.79-6.58-15.27-15.42-15.27s-15.53,6.48-15.53,15.27,6.63,15.27,15.53,15.27,15.42-6.48,15.42-15.27Z"
      fill="#4d4d4d"
    />
    <path
      d="M560.78,766.07h3.9v33.48h20.64v3.37h-24.53v-36.85Z"
      fill="#4d4d4d"
    />
    <path
      d="M590.79,787.18v-21.11h3.9v20.95c0,8.74,4.11,12.74,11.27,12.74s11.32-4,11.32-12.74v-20.95h3.79v21.11c0,10.58-5.69,16.06-15.11,16.06s-15.16-5.48-15.16-16.06Z"
      fill="#4d4d4d"
    />
    <path
      d="M639.23,769.44h-12.95v-3.37h29.8v3.37h-12.95v33.48h-3.9v-33.48Z"
      fill="#4d4d4d"
    />
    <path d="M662.29,766.07h3.9v36.85h-3.9v-36.85Z" fill="#4d4d4d" />
    <path
      d="M674.92,784.5c0-10.74,8.21-18.74,19.37-18.74s19.32,7.95,19.32,18.74-8.26,18.74-19.32,18.74-19.37-8-19.37-18.74ZM709.72,784.5c0-8.79-6.58-15.27-15.42-15.27s-15.53,6.48-15.53,15.27,6.63,15.27,15.53,15.27,15.42-6.48,15.42-15.27Z"
      fill="#4d4d4d"
    />
    <path
      d="M753.16,766.07v36.85h-3.21l-23.69-29.9v29.9h-3.9v-36.85h3.21l23.74,29.9v-29.9h3.84Z"
      fill="#4d4d4d"
    />
    <path
      d="M761.64,798.45l1.53-3c2.63,2.58,7.32,4.47,12.16,4.47,6.9,0,9.9-2.9,9.9-6.53,0-10.11-22.69-3.9-22.69-17.53,0-5.42,4.21-10.11,13.58-10.11,4.16,0,8.48,1.21,11.42,3.26l-1.32,3.11c-3.16-2.05-6.84-3.05-10.11-3.05-6.74,0-9.74,3-9.74,6.69,0,10.11,22.69,4,22.69,17.42,0,5.42-4.32,10.05-13.74,10.05-5.53,0-10.95-1.95-13.69-4.79Z"
      fill="#4d4d4d"
    />
  </g>
</svg>